<svg width="583" height="315" viewBox="0 0 583 315" fill="none" xmlns="http://www.w3.org/2000/svg">
<g filter="url(#filter0_d_101_162)">
<path d="M100.104 71.5053C100.104 65.9824 104.581 61.5052 110.104 61.5052H472.104C477.627 61.5052 482.104 65.9824 482.104 71.5052V165.505C482.104 171.028 477.627 175.505 472.104 175.505H110.104C104.581 175.505 100.104 171.028 100.104 165.505V71.5053Z" fill="white"/>
<path d="M229.051 109.505H232.339V94.5052H236.899V91.6252H224.419V94.5052H229.051V109.505ZM238.626 94.9852H241.77V91.6252H238.626V94.9852ZM238.626 109.505H241.77V96.4492H238.626V109.505ZM248.633 109.793C250.329 109.793 251.689 109.233 252.713 108.113V109.505H255.689V100.817C255.689 99.9052 255.457 99.0972 254.993 98.3932C254.529 97.6892 253.889 97.1452 253.073 96.7612C252.273 96.3612 251.337 96.1612 250.265 96.1612C248.953 96.1612 247.785 96.4732 246.761 97.0972C245.737 97.7212 245.033 98.5452 244.649 99.5692L247.217 100.817C247.457 100.225 247.833 99.7532 248.345 99.4012C248.857 99.0332 249.457 98.8492 250.145 98.8492C250.865 98.8492 251.441 99.0412 251.873 99.4252C252.321 99.7932 252.545 100.257 252.545 100.817V101.249L248.657 101.873C247.121 102.129 245.985 102.617 245.249 103.337C244.513 104.057 244.145 104.961 244.145 106.049C244.145 107.201 244.553 108.113 245.369 108.785C246.185 109.457 247.273 109.793 248.633 109.793ZM247.409 105.929C247.409 105.017 248.025 104.441 249.257 104.201L252.545 103.649V104.177C252.545 105.073 252.233 105.833 251.609 106.457C251.001 107.081 250.201 107.393 249.209 107.393C248.681 107.393 248.249 107.265 247.913 107.009C247.577 106.737 247.409 106.377 247.409 105.929ZM258.595 109.505H261.739V102.233C261.739 101.241 262.011 100.473 262.555 99.9292C263.115 99.3692 263.835 99.0892 264.715 99.0892H265.843V96.3052H265.075C264.275 96.3052 263.571 96.4492 262.963 96.7372C262.355 97.0252 261.883 97.5452 261.547 98.2972V96.4492H258.595V109.505ZM271.532 109.793C273.228 109.793 274.588 109.233 275.612 108.113V109.505H278.588V100.817C278.588 99.9052 278.356 99.0972 277.892 98.3932C277.428 97.6892 276.788 97.1452 275.972 96.7612C275.172 96.3612 274.236 96.1612 273.164 96.1612C271.852 96.1612 270.684 96.4732 269.66 97.0972C268.636 97.7212 267.932 98.5452 267.548 99.5692L270.116 100.817C270.356 100.225 270.732 99.7532 271.244 99.4012C271.756 99.0332 272.356 98.8492 273.044 98.8492C273.764 98.8492 274.34 99.0412 274.772 99.4252C275.22 99.7932 275.444 100.257 275.444 100.817V101.249L271.556 101.873C270.02 102.129 268.884 102.617 268.148 103.337C267.412 104.057 267.044 104.961 267.044 106.049C267.044 107.201 267.452 108.113 268.268 108.785C269.084 109.457 270.172 109.793 271.532 109.793ZM270.308 105.929C270.308 105.017 270.924 104.441 272.156 104.201L275.444 103.649V104.177C275.444 105.073 275.132 105.833 274.508 106.457C273.9 107.081 273.1 107.393 272.108 107.393C271.58 107.393 271.148 107.265 270.812 107.009C270.476 106.737 270.308 106.377 270.308 105.929ZM284.559 109.505H288.087L289.383 105.665H296.295L297.567 109.505H301.119L294.951 91.6252H290.727L284.559 109.505ZM290.319 102.785L292.839 95.2492L295.359 102.785H290.319ZM302.845 109.505H305.989V101.849C305.989 101.001 306.229 100.321 306.709 99.8092C307.205 99.2972 307.845 99.0412 308.629 99.0412C309.413 99.0412 310.045 99.2972 310.525 99.8092C311.021 100.305 311.269 100.985 311.269 101.849V109.505H314.413V101.105C314.413 100.129 314.205 99.2732 313.789 98.5372C313.373 97.7852 312.789 97.2012 312.037 96.7852C311.301 96.3692 310.453 96.1612 309.493 96.1612C308.677 96.1612 307.941 96.3212 307.285 96.6412C306.645 96.9612 306.149 97.4332 305.797 98.0572V96.4492H302.845V109.505ZM323.144 109.793C323.992 109.793 324.776 109.649 325.496 109.361C326.216 109.057 326.816 108.625 327.296 108.065V109.505H330.272V91.3372H327.128V97.7692C326.152 96.6972 324.816 96.1612 323.12 96.1612C321.888 96.1612 320.768 96.4652 319.76 97.0732C318.768 97.6652 317.984 98.4812 317.408 99.5212C316.832 100.545 316.544 101.697 316.544 102.977C316.544 104.257 316.832 105.417 317.408 106.457C317.984 107.481 318.768 108.297 319.76 108.905C320.752 109.497 321.88 109.793 323.144 109.793ZM323.48 106.913C322.776 106.913 322.144 106.745 321.584 106.409C321.024 106.073 320.584 105.609 320.264 105.017C319.96 104.409 319.808 103.729 319.808 102.977C319.808 102.225 319.96 101.553 320.264 100.961C320.584 100.369 321.024 99.9052 321.584 99.5692C322.144 99.2172 322.776 99.0412 323.48 99.0412C324.184 99.0412 324.808 99.2092 325.352 99.5452C325.912 99.8812 326.344 100.345 326.648 100.937C326.968 101.529 327.128 102.209 327.128 102.977C327.128 103.745 326.968 104.425 326.648 105.017C326.344 105.609 325.912 106.073 325.352 106.409C324.808 106.745 324.184 106.913 323.48 106.913ZM333.197 94.9852H336.341V91.6252H333.197V94.9852ZM333.197 109.505H336.341V96.4492H333.197V109.505ZM339.244 109.505H342.388V101.849C342.388 101.001 342.628 100.321 343.108 99.8092C343.604 99.2972 344.244 99.0412 345.028 99.0412C345.812 99.0412 346.444 99.2972 346.924 99.8092C347.42 100.305 347.668 100.985 347.668 101.849V109.505H350.812V101.105C350.812 100.129 350.604 99.2732 350.188 98.5372C349.772 97.7852 349.188 97.2012 348.436 96.7852C347.7 96.3692 346.852 96.1612 345.892 96.1612C345.076 96.1612 344.34 96.3212 343.684 96.6412C343.044 96.9612 342.548 97.4332 342.196 98.0572V96.4492H339.244V109.505ZM353.47 94.9852H356.614V91.6252H353.47V94.9852ZM353.47 109.505H356.614V96.4492H353.47V109.505Z" fill="#33475B"/>
<path d="M260.563 140.873H266.563V139.513H260.563V140.873ZM269.143 144.505H275.943V143.065H270.711V132.585H269.143V144.505ZM280.057 144.697C280.687 144.697 281.252 144.58 281.753 144.345C282.255 144.1 282.66 143.78 282.969 143.385V144.505H284.425V138.649C284.425 138.063 284.281 137.551 283.993 137.113C283.716 136.665 283.327 136.319 282.825 136.073C282.324 135.817 281.743 135.689 281.081 135.689C280.569 135.689 280.079 135.78 279.609 135.961C279.14 136.143 278.729 136.393 278.377 136.713C278.025 137.023 277.769 137.375 277.609 137.769L278.905 138.441C279.087 138.036 279.364 137.705 279.737 137.449C280.111 137.193 280.548 137.065 281.049 137.065C281.615 137.065 282.068 137.215 282.409 137.513C282.761 137.801 282.937 138.18 282.937 138.649V139.049L279.993 139.529C279.023 139.689 278.308 140.015 277.849 140.505C277.401 140.985 277.177 141.567 277.177 142.249C277.177 142.975 277.444 143.567 277.977 144.025C278.521 144.473 279.215 144.697 280.057 144.697ZM278.745 142.201C278.745 141.828 278.868 141.513 279.113 141.257C279.369 141.001 279.775 140.825 280.329 140.729L282.937 140.297V140.841C282.937 141.321 282.825 141.759 282.601 142.153C282.377 142.548 282.063 142.863 281.657 143.097C281.252 143.321 280.777 143.433 280.233 143.433C279.807 143.433 279.449 143.316 279.161 143.081C278.884 142.847 278.745 142.553 278.745 142.201ZM288.716 144.505H290.14L292.188 138.009L294.236 144.505H295.66L298.62 135.881H296.988L294.908 142.201L292.892 135.881H291.484L289.468 142.201L287.404 135.881H285.756L288.716 144.505ZM300.415 148.025C300.98 148.025 301.46 147.913 301.855 147.689C302.26 147.465 302.602 147.161 302.879 146.777C303.167 146.404 303.402 145.988 303.583 145.529L307.471 135.881H305.823L303.215 142.617L300.591 135.881H298.975L302.399 144.521L302.143 145.145C301.908 145.679 301.658 146.057 301.391 146.281C301.135 146.505 300.756 146.617 300.255 146.617C300.084 146.617 299.908 146.601 299.727 146.569C299.556 146.548 299.412 146.527 299.295 146.505V147.833C299.466 147.908 299.647 147.956 299.839 147.977C300.031 148.009 300.223 148.025 300.415 148.025ZM312.607 144.697C313.492 144.697 314.26 144.489 314.911 144.073C315.561 143.657 316.02 143.151 316.287 142.553L315.039 141.913C314.793 142.329 314.473 142.671 314.079 142.937C313.684 143.204 313.199 143.337 312.623 143.337C312.143 143.337 311.695 143.231 311.279 143.017C310.873 142.793 310.537 142.479 310.271 142.073C310.015 141.668 309.876 141.188 309.855 140.633H316.447C316.5 140.345 316.527 140.079 316.527 139.833C316.527 139.119 316.367 138.447 316.047 137.817C315.727 137.188 315.263 136.676 314.655 136.281C314.057 135.887 313.332 135.689 312.479 135.689C311.679 135.689 310.964 135.881 310.335 136.265C309.705 136.649 309.204 137.183 308.831 137.865C308.468 138.537 308.287 139.305 308.287 140.169C308.287 141.033 308.473 141.807 308.847 142.489C309.22 143.172 309.732 143.711 310.383 144.105C311.033 144.5 311.775 144.697 312.607 144.697ZM312.479 137.017C312.916 137.017 313.316 137.119 313.679 137.321C314.041 137.513 314.335 137.785 314.559 138.137C314.783 138.489 314.9 138.895 314.911 139.353H309.887C309.993 138.628 310.292 138.057 310.783 137.641C311.273 137.225 311.839 137.017 312.479 137.017ZM318.467 144.505H319.955V139.369C319.955 138.676 320.141 138.143 320.515 137.769C320.888 137.385 321.379 137.193 321.987 137.193H322.739V135.785H322.211C321.677 135.785 321.219 135.881 320.835 136.073C320.451 136.255 320.147 136.532 319.923 136.905V135.881H318.467V144.505Z" fill="#87898C"/>
</g>
<defs>
<filter id="filter0_d_101_162" x="0.103821" y="0.505249" width="582" height="314" filterUnits="userSpaceOnUse" color-interpolation-filters="sRGB">
<feFlood flood-opacity="0" result="BackgroundImageFix"/>
<feColorMatrix in="SourceAlpha" type="matrix" values="0 0 0 0 0 0 0 0 0 0 0 0 0 0 0 0 0 0 127 0" result="hardAlpha"/>
<feOffset dy="39"/>
<feGaussianBlur stdDeviation="50"/>
<feComposite in2="hardAlpha" operator="out"/>
<feColorMatrix type="matrix" values="0 0 0 0 0.0980392 0 0 0 0 0.243137 0 0 0 0 0.423529 0 0 0 0.12 0"/>
<feBlend mode="normal" in2="BackgroundImageFix" result="effect1_dropShadow_101_162"/>
<feBlend mode="normal" in="SourceGraphic" in2="effect1_dropShadow_101_162" result="shape"/>
</filter>
</defs>
</svg>
